<svg xmlns="http://www.w3.org/2000/svg" xmlns:xlink="http://www.w3.org/1999/xlink" width="1634" zoomAndPan="magnify" viewBox="0 0 1225.5 578.249966" height="771" preserveAspectRatio="xMidYMid meet" version="1.0"><defs><g/><clipPath id="662da0d5e2"><path d="M 6 67 L 171 67 L 171 233.695312 L 6 233.695312 Z M 6 67 " clip-rule="nonzero"/></clipPath></defs><g clip-path="url(#662da0d5e2)"><path fill="#4b240e" d="M 124.492188 174.871094 L 120.15625 174.714844 L 115.800781 174.816406 C 115.800781 174.816406 111.445312 175.207031 111.445312 175.210938 C 102.875 176.1875 94.34375 178.769531 86.445312 182.210938 C 79.589844 185.277344 73.082031 189.078125 66.953125 193.414062 C 68.351562 179.90625 69.882812 164.253906 71.015625 151.203125 L 72.964844 129.707031 L 56.621094 143.929688 C 55.035156 145.308594 53.128906 146.203125 50.738281 146.554688 C 44.101562 147.484375 36.460938 144.230469 31.6875 139.425781 C 26.074219 133.863281 22.632812 126.265625 21.570312 118.433594 C 19.785156 105.976562 24.792969 93.789062 34.320312 85.667969 C 52.171875 69.894531 79.667969 74.761719 93.960938 93.316406 C 87.359375 78.421875 71.355469 68.394531 54.8125 68.003906 C 44.035156 67.699219 33.179688 71.703125 24.671875 78.398438 C 2.925781 95.390625 0.542969 126.949219 17.417969 148.269531 C 25.386719 158.554688 39.503906 165.199219 52.496094 163.738281 C 51.585938 174.582031 50.695312 186.003906 49.96875 195.925781 C 49.363281 204.949219 48.070312 224.167969 47.453125 233.367188 C 47.453125 233.367188 62.523438 217.71875 62.523438 217.71875 C 79.730469 199.632812 102.460938 184.195312 128.242188 184.007812 C 143.835938 183.828125 159.730469 189.121094 170.996094 200.3125 C 161.34375 184.519531 142.605469 176.050781 124.492188 174.871094 Z M 124.492188 174.871094 " fill-opacity="1" fill-rule="nonzero"/></g><path fill="#4b240e" d="M 266.03125 91.71875 C 264.613281 86.589844 261.742188 81.964844 258.535156 77.929688 C 256.730469 75.621094 254.757812 73.445312 252.664062 71.390625 C 251.796875 70.632812 250.304688 69.222656 249.394531 68.449219 C 248.851562 67.996094 246.410156 66.171875 245.914062 65.757812 C 243.636719 64.136719 240.917969 62.460938 238.433594 61.160156 L 237.792969 60.8125 C 237.792969 60.8125 237.128906 60.503906 237.128906 60.503906 C 223.59375 53.847656 207.6875 52.238281 193.121094 56.109375 C 187.308594 57.628906 176.691406 60.617188 168.460938 62.929688 C 165.925781 55.976562 163.328125 48.996094 160.796875 42.085938 C 159.667969 39.046875 158.261719 35.992188 156.757812 33.121094 C 155.894531 31.6875 154.953125 29.953125 154.019531 28.570312 C 146.886719 17.660156 136.320312 8.945312 124.121094 4.296875 C 122.316406 3.570312 120.316406 2.984375 118.457031 2.421875 C 117.578125 2.222656 114.917969 1.542969 114.113281 1.398438 C 113.082031 1.207031 110.8125 0.894531 109.714844 0.699219 C 109.714844 0.699219 106.761719 0.460938 106.761719 0.460938 C 101.738281 0.0898438 96.84375 0.289062 91.734375 1.660156 C 89.695312 2.222656 87.664062 3.058594 85.820312 4.132812 C 67.652344 14.265625 57.25 38.90625 66.101562 58.203125 C 61.769531 41.300781 70.554688 22.539062 85.191406 13.710938 C 87.875 12.125 90.652344 10.722656 93.753906 10.230469 C 97.433594 9.59375 101.769531 9.808594 105.65625 10.519531 L 108.074219 10.941406 L 110.457031 11.53125 C 110.457031 11.53125 111.644531 11.824219 111.644531 11.824219 C 112.039062 11.929688 112.421875 12.078125 112.808594 12.203125 C 114.34375 12.703125 115.867188 13.195312 117.382812 13.890625 C 127.777344 18.238281 136.535156 26.175781 142.140625 35.914062 C 142.804688 37.035156 143.460938 38.457031 144.074219 39.601562 C 144.9375 41.589844 145.792969 43.621094 146.445312 45.683594 C 149.640625 55.457031 152.675781 65.484375 155.886719 75.246094 L 158.160156 82.207031 C 168.117188 79.746094 184.976562 75.628906 194.894531 73.085938 C 208.988281 69.148438 223.828125 71.382812 235.8125 79.859375 L 237.496094 81.140625 C 237.496094 81.140625 238.339844 81.78125 238.339844 81.78125 C 238.902344 82.269531 240.105469 83.371094 240.710938 83.886719 C 243.988281 87.121094 247.253906 90.945312 249.101562 95.113281 C 252.433594 103.914062 251.9375 114.140625 248.183594 122.730469 C 245.429688 128.953125 240.835938 133.875 234.929688 136.902344 C 222.945312 142.882812 208.273438 141.210938 195.652344 138.019531 C 169.566406 130.96875 141.914062 115.964844 115.230469 129.664062 C 105.945312 134.3125 97.851562 142.765625 96.472656 153.355469 C 99.046875 145.488281 105.324219 139.335938 112.6875 135.867188 C 139.96875 122.722656 166.402344 141.6875 191.984375 150.273438 C 208.671875 155.933594 228.191406 158.070312 244.277344 149.441406 C 264.445312 138.769531 272.394531 112.910156 266.03125 91.71875 Z M 266.03125 91.71875 " fill-opacity="1" fill-rule="nonzero"/><g fill="#63b32e" fill-opacity="0.4"><g transform="translate(84.733891, 399.250856)"><g><path d="M 149.765625 -66.046875 C 149.765625 -53.023438 146.765625 -42.171875 140.765625 -33.484375 C 138.492188 -30.585938 135.597656 -27.332031 132.078125 -23.71875 C 128.566406 -20.101562 124.4375 -16.332031 119.6875 -12.40625 L 94.5625 7.4375 L 74.71875 -26.96875 L 97.671875 -43.09375 L 97.359375 -43.09375 C 103.765625 -48.46875 106.96875 -56.632812 106.96875 -67.59375 L 106.96875 -141.703125 L 8.984375 -141.703125 L 15.1875 -177.359375 L 149.765625 -177.359375 Z M 13.953125 43.71875 L 13.953125 -103.875 L 48.0625 -125.578125 L 57.359375 -120.609375 L 57.046875 27.28125 L 24.1875 48.375 Z M 13.953125 43.71875 "/></g></g></g><g fill="#63b32e" fill-opacity="0.4"><g transform="translate(234.182454, 399.250856)"><g><path d="M 23.875 5.265625 L 14.265625 0 L 14.265625 -177.359375 L 57.046875 -177.359375 L 57.046875 -16.75 Z M 23.875 5.265625 "/></g></g></g><g fill="#63b32e" fill-opacity="0.4"><g transform="translate(286.582281, 399.250856)"><g><path d="M 126.8125 -109.765625 C 126.40625 -103.972656 125.890625 -99.0625 125.265625 -95.03125 C 124.640625 -91 123.601562 -87.378906 122.15625 -84.171875 C 120.71875 -80.972656 118.859375 -77.976562 116.578125 -75.1875 C 114.304688 -72.394531 111.207031 -69.453125 107.28125 -66.359375 L 107.28125 -66.65625 L 89.296875 -52.40625 L 70.6875 -75.03125 L 81.234375 -84.953125 L 80.609375 -84.640625 C 82.472656 -86.921875 83.457031 -89.453125 83.5625 -92.234375 C 83.664062 -95.023438 83.925781 -97.867188 84.34375 -100.765625 L 86.8125 -177.359375 L 128.984375 -177.359375 L 126.8125 -110.078125 Z M 135.1875 -35.34375 C 139.738281 -35.34375 142.53125 -36.894531 143.5625 -40 C 144.59375 -43.101562 145.421875 -47.03125 146.046875 -51.78125 L 146.046875 -51.46875 L 156.578125 -177.359375 L 203.71875 -177.359375 L 186.34375 -36.59375 C 184.28125 -25.632812 180.09375 -16.742188 173.78125 -9.921875 C 167.476562 -3.097656 159.054688 0.3125 148.515625 0.3125 L 28.53125 0.3125 L 11.46875 -177.359375 L 57.359375 -177.359375 L 67.90625 -35.34375 Z M 135.1875 -35.34375 "/></g></g></g><g fill="#63b32e" fill-opacity="0.4"><g transform="translate(485.020276, 399.250856)"><g/></g></g><g fill="#63b32e" fill-opacity="0.4"><g transform="translate(531.838987, 399.250856)"><g><path d="M 43.09375 56.125 L 33.484375 50.84375 L 33.484375 -177.359375 L 76.28125 -177.359375 L 76.28125 34.109375 Z M 43.09375 56.125 "/></g></g></g><g fill="#63b32e" fill-opacity="0.4"><g transform="translate(605.942924, 399.250856)"><g><path d="M 124.953125 5.265625 L 115.34375 0 L 115.34375 -134.25 C 115.34375 -137.976562 115.03125 -140.148438 114.40625 -140.765625 L 114.71875 -140.140625 C 113.6875 -140.972656 111.207031 -141.390625 107.28125 -141.390625 L 58.90625 -141.390625 L 58.90625 -16.75 L 25.734375 5.265625 L 16.125 0 L 15.8125 -177.359375 L 112.25 -177.359375 C 118.445312 -177.359375 124.332031 -177.148438 129.90625 -176.734375 C 135.488281 -176.316406 140.398438 -175.175781 144.640625 -173.3125 C 148.878906 -171.457031 152.1875 -168.671875 154.5625 -164.953125 C 156.9375 -161.234375 158.125 -156.066406 158.125 -149.453125 L 158.125 -16.75 Z M 124.953125 5.265625 "/></g></g></g><g fill="#63b32e" fill-opacity="0.4"><g transform="translate(764.073183, 399.250856)"><g><path d="M 119.375 -66.046875 C 119.375 -53.429688 116.375 -42.578125 110.375 -33.484375 C 108.101562 -30.585938 105.207031 -27.332031 101.6875 -23.71875 C 98.175781 -20.101562 94.046875 -16.332031 89.296875 -12.40625 L 64.796875 7.125 L 41.546875 -24.5 L 66.046875 -43.09375 C 73.066406 -48.46875 76.578125 -56.632812 76.578125 -67.59375 L 76.578125 -141.703125 L 2.484375 -141.703125 L 2.484375 -223.5625 L 11.15625 -228.203125 L 45.265625 -215.1875 L 45.265625 -177.359375 L 119.375 -177.359375 Z M 119.375 -66.046875 "/></g></g></g><g fill="#63b32e" fill-opacity="0.4"><g transform="translate(881.895619, 399.250856)"><g><path d="M 23.875 5.265625 L 14.265625 0 L 14.265625 -177.359375 L 57.046875 -177.359375 L 57.046875 -16.75 Z M 23.875 5.265625 "/></g></g></g><g fill="#63b32e" fill-opacity="0.4"><g transform="translate(934.295423, 399.250856)"><g><path d="M 126.8125 -109.765625 C 126.40625 -103.972656 125.890625 -99.0625 125.265625 -95.03125 C 124.640625 -91 123.601562 -87.378906 122.15625 -84.171875 C 120.71875 -80.972656 118.859375 -77.976562 116.578125 -75.1875 C 114.304688 -72.394531 111.207031 -69.453125 107.28125 -66.359375 L 107.28125 -66.65625 L 89.296875 -52.40625 L 70.6875 -75.03125 L 81.234375 -84.953125 L 80.609375 -84.640625 C 82.472656 -86.921875 83.457031 -89.453125 83.5625 -92.234375 C 83.664062 -95.023438 83.925781 -97.867188 84.34375 -100.765625 L 86.8125 -177.359375 L 128.984375 -177.359375 L 126.8125 -110.078125 Z M 135.1875 -35.34375 C 139.738281 -35.34375 142.53125 -36.894531 143.5625 -40 C 144.59375 -43.101562 145.421875 -47.03125 146.046875 -51.78125 L 146.046875 -51.46875 L 156.578125 -177.359375 L 203.71875 -177.359375 L 186.34375 -36.59375 C 184.28125 -25.632812 180.09375 -16.742188 173.78125 -9.921875 C 167.476562 -3.097656 159.054688 0.3125 148.515625 0.3125 L 28.53125 0.3125 L 11.46875 -177.359375 L 57.359375 -177.359375 L 67.90625 -35.34375 Z M 135.1875 -35.34375 "/></g></g></g><g fill="#4b240e" fill-opacity="1"><g transform="translate(84.733891, 399.250856)"><g><path d="M 149.765625 -66.046875 C 149.765625 -53.023438 146.765625 -42.171875 140.765625 -33.484375 C 138.492188 -30.585938 135.597656 -27.332031 132.078125 -23.71875 C 128.566406 -20.101562 124.4375 -16.332031 119.6875 -12.40625 L 94.5625 7.4375 L 74.71875 -26.96875 L 97.671875 -43.09375 L 97.359375 -43.09375 C 103.765625 -48.46875 106.96875 -56.632812 106.96875 -67.59375 L 106.96875 -141.703125 L 8.984375 -141.703125 L 15.1875 -177.359375 L 149.765625 -177.359375 Z M 13.953125 43.71875 L 13.953125 -103.875 L 48.0625 -125.578125 L 57.359375 -120.609375 L 57.046875 27.28125 L 24.1875 48.375 Z M 13.953125 43.71875 "/></g></g></g><g fill="#4b240e" fill-opacity="1"><g transform="translate(234.182454, 399.250856)"><g><path d="M 23.875 5.265625 L 14.265625 0 L 14.265625 -177.359375 L 57.046875 -177.359375 L 57.046875 -16.75 Z M 23.875 5.265625 "/></g></g></g><g fill="#4b240e" fill-opacity="1"><g transform="translate(286.582281, 399.250856)"><g><path d="M 126.8125 -109.765625 C 126.40625 -103.972656 125.890625 -99.0625 125.265625 -95.03125 C 124.640625 -91 123.601562 -87.378906 122.15625 -84.171875 C 120.71875 -80.972656 118.859375 -77.976562 116.578125 -75.1875 C 114.304688 -72.394531 111.207031 -69.453125 107.28125 -66.359375 L 107.28125 -66.65625 L 89.296875 -52.40625 L 70.6875 -75.03125 L 81.234375 -84.953125 L 80.609375 -84.640625 C 82.472656 -86.921875 83.457031 -89.453125 83.5625 -92.234375 C 83.664062 -95.023438 83.925781 -97.867188 84.34375 -100.765625 L 86.8125 -177.359375 L 128.984375 -177.359375 L 126.8125 -110.078125 Z M 135.1875 -35.34375 C 139.738281 -35.34375 142.53125 -36.894531 143.5625 -40 C 144.59375 -43.101562 145.421875 -47.03125 146.046875 -51.78125 L 146.046875 -51.46875 L 156.578125 -177.359375 L 203.71875 -177.359375 L 186.34375 -36.59375 C 184.28125 -25.632812 180.09375 -16.742188 173.78125 -9.921875 C 167.476562 -3.097656 159.054688 0.3125 148.515625 0.3125 L 28.53125 0.3125 L 11.46875 -177.359375 L 57.359375 -177.359375 L 67.90625 -35.34375 Z M 135.1875 -35.34375 "/></g></g></g><g fill="#4b240e" fill-opacity="1"><g transform="translate(485.020276, 399.250856)"><g/></g></g><g fill="#4b240e" fill-opacity="1"><g transform="translate(531.838987, 399.250856)"><g><path d="M 43.09375 56.125 L 33.484375 50.84375 L 33.484375 -177.359375 L 76.28125 -177.359375 L 76.28125 34.109375 Z M 43.09375 56.125 "/></g></g></g><g fill="#4b240e" fill-opacity="1"><g transform="translate(605.942924, 399.250856)"><g><path d="M 124.953125 5.265625 L 115.34375 0 L 115.34375 -134.25 C 115.34375 -137.976562 115.03125 -140.148438 114.40625 -140.765625 L 114.71875 -140.140625 C 113.6875 -140.972656 111.207031 -141.390625 107.28125 -141.390625 L 58.90625 -141.390625 L 58.90625 -16.75 L 25.734375 5.265625 L 16.125 0 L 15.8125 -177.359375 L 112.25 -177.359375 C 118.445312 -177.359375 124.332031 -177.148438 129.90625 -176.734375 C 135.488281 -176.316406 140.398438 -175.175781 144.640625 -173.3125 C 148.878906 -171.457031 152.1875 -168.671875 154.5625 -164.953125 C 156.9375 -161.234375 158.125 -156.066406 158.125 -149.453125 L 158.125 -16.75 Z M 124.953125 5.265625 "/></g></g></g><g fill="#4b240e" fill-opacity="1"><g transform="translate(764.073183, 399.250856)"><g><path d="M 119.375 -66.046875 C 119.375 -53.429688 116.375 -42.578125 110.375 -33.484375 C 108.101562 -30.585938 105.207031 -27.332031 101.6875 -23.71875 C 98.175781 -20.101562 94.046875 -16.332031 89.296875 -12.40625 L 64.796875 7.125 L 41.546875 -24.5 L 66.046875 -43.09375 C 73.066406 -48.46875 76.578125 -56.632812 76.578125 -67.59375 L 76.578125 -141.703125 L 2.484375 -141.703125 L 2.484375 -223.5625 L 11.15625 -228.203125 L 45.265625 -215.1875 L 45.265625 -177.359375 L 119.375 -177.359375 Z M 119.375 -66.046875 "/></g></g></g><g fill="#4b240e" fill-opacity="1"><g transform="translate(881.895619, 399.250856)"><g><path d="M 23.875 5.265625 L 14.265625 0 L 14.265625 -177.359375 L 57.046875 -177.359375 L 57.046875 -16.75 Z M 23.875 5.265625 "/></g></g></g><g fill="#4b240e" fill-opacity="1"><g transform="translate(934.295423, 399.250856)"><g><path d="M 126.8125 -109.765625 C 126.40625 -103.972656 125.890625 -99.0625 125.265625 -95.03125 C 124.640625 -91 123.601562 -87.378906 122.15625 -84.171875 C 120.71875 -80.972656 118.859375 -77.976562 116.578125 -75.1875 C 114.304688 -72.394531 111.207031 -69.453125 107.28125 -66.359375 L 107.28125 -66.65625 L 89.296875 -52.40625 L 70.6875 -75.03125 L 81.234375 -84.953125 L 80.609375 -84.640625 C 82.472656 -86.921875 83.457031 -89.453125 83.5625 -92.234375 C 83.664062 -95.023438 83.925781 -97.867188 84.34375 -100.765625 L 86.8125 -177.359375 L 128.984375 -177.359375 L 126.8125 -110.078125 Z M 135.1875 -35.34375 C 139.738281 -35.34375 142.53125 -36.894531 143.5625 -40 C 144.59375 -43.101562 145.421875 -47.03125 146.046875 -51.78125 L 146.046875 -51.46875 L 156.578125 -177.359375 L 203.71875 -177.359375 L 186.34375 -36.59375 C 184.28125 -25.632812 180.09375 -16.742188 173.78125 -9.921875 C 167.476562 -3.097656 159.054688 0.3125 148.515625 0.3125 L 28.53125 0.3125 L 11.46875 -177.359375 L 57.359375 -177.359375 L 67.90625 -35.34375 Z M 135.1875 -35.34375 "/></g></g></g><g fill="#4b240e" fill-opacity="1"><g transform="translate(138.48006, 498.429642)"><g><path d="M 3.359375 0 L 3.359375 -28.46875 L 17.84375 -28.46875 C 21.101562 -28.46875 23.523438 -27.742188 25.109375 -26.296875 C 26.703125 -24.859375 27.5 -22.550781 27.5 -19.375 L 27.5 0 Z M 7.6875 -3.984375 L 23.171875 -3.984375 L 23.171875 -18.515625 C 23.171875 -20.753906 22.671875 -22.304688 21.671875 -23.171875 C 20.679688 -24.035156 19.304688 -24.46875 17.546875 -24.46875 L 7.6875 -24.46875 Z M 7.6875 -3.984375 "/></g></g></g><g fill="#4b240e" fill-opacity="1"><g transform="translate(208.278786, 498.429642)"><g><path d="M 3.609375 -10.234375 L 3.609375 -28.46875 L 7.9375 -28.46875 L 7.9375 -14.5625 L 5.765625 -10.234375 Z M 3.609375 -10.234375 "/></g></g></g><g fill="#4b240e" fill-opacity="1"><g transform="translate(258.033779, 498.429642)"><g><path d="M 1.203125 0 L 1.203125 -3.984375 L 8.984375 -3.984375 L 3.3125 -28.46875 L 7.640625 -28.46875 L 13.171875 -4.234375 C 15.929688 -4.742188 18.070312 -6.007812 19.59375 -8.03125 C 21.113281 -10.050781 22.050781 -13.0625 22.40625 -17.0625 L 23.46875 -28.46875 L 27.796875 -28.46875 L 26.734375 -17.0625 C 26.609375 -15.625 26.382812 -14.117188 26.0625 -12.546875 C 25.738281 -10.972656 25.222656 -9.441406 24.515625 -7.953125 C 23.816406 -6.460938 22.847656 -5.113281 21.609375 -3.90625 C 20.378906 -2.707031 18.804688 -1.753906 16.890625 -1.046875 C 14.984375 -0.347656 12.65625 0 9.90625 0 Z M 1.203125 0 "/></g></g></g><g fill="#4b240e" fill-opacity="1"><g transform="translate(325.717576, 498.429642)"><g><path d="M 4.09375 0 L 4.09375 -28.46875 L 8.40625 -28.46875 L 8.40625 0 Z M 4.09375 0 "/></g></g></g><g fill="#4b240e" fill-opacity="1"><g transform="translate(376.67423, 498.429642)"><g><path d="M 17.890625 0 L 17.890625 -18.515625 C 17.890625 -20.753906 17.390625 -22.304688 16.390625 -23.171875 C 15.398438 -24.035156 14.023438 -24.46875 12.265625 -24.46875 L 0.71875 -24.46875 L 0.71875 -28.46875 L 12.546875 -28.46875 C 15.816406 -28.46875 18.242188 -27.742188 19.828125 -26.296875 C 21.421875 -24.859375 22.21875 -22.550781 22.21875 -19.375 L 22.21875 0 Z M 17.890625 0 "/></g></g></g><g fill="#4b240e" fill-opacity="1"><g transform="translate(441.185652, 498.429642)"><g><path d="M 3.609375 -10.234375 L 3.609375 -28.46875 L 7.9375 -28.46875 L 7.9375 -14.5625 L 5.765625 -10.234375 Z M 3.609375 -10.234375 "/></g></g></g><g fill="#4b240e" fill-opacity="1"><g transform="translate(490.940633, 498.429642)"><g><path d="M 2.6875 0 L 2.6875 -7.59375 C 2.6875 -10.632812 3.195312 -13.132812 4.21875 -15.09375 C 5.25 -17.050781 6.679688 -18.507812 8.515625 -19.46875 L 2.40625 -28.46875 L 7.5 -28.46875 L 18.21875 -12.546875 C 20.5625 -13.953125 21.734375 -16.820312 21.734375 -21.15625 L 21.734375 -28.46875 L 26.0625 -28.46875 L 26.0625 -21.4375 C 26.0625 -18.394531 25.546875 -15.90625 24.515625 -13.96875 C 23.492188 -12.03125 22.066406 -10.5625 20.234375 -9.5625 L 26.734375 0 L 21.640625 0 L 10.53125 -16.484375 C 8.1875 -15.046875 7.015625 -12.179688 7.015625 -7.890625 L 7.015625 0 Z M 2.6875 0 "/></g></g></g><g fill="#4b240e" fill-opacity="1"><g transform="translate(558.528287, 498.429642)"><g><path d="M 5.046875 -28.46875 L 22.84375 -28.46875 L 22.84375 -25.1875 L 13.84375 0 L 9.28125 0 L 18.3125 -24.46875 L 0.71875 -24.46875 L 0.71875 -36.546875 L 5.046875 -36.546875 Z M 5.046875 -28.46875 "/></g></g></g><g fill="#4b240e" fill-opacity="1"><g transform="translate(621.501577, 498.429642)"><g/></g></g><g fill="#4b240e" fill-opacity="1"><g transform="translate(672.794714, 498.429642)"><g><path d="M 0.71875 0.484375 L 0.71875 -4.140625 C 1.96875 -4.585938 3.101562 -5.15625 4.125 -5.84375 C 5.15625 -6.53125 6.054688 -7.320312 6.828125 -8.21875 C 8.910156 -10.65625 9.953125 -13.394531 9.953125 -16.4375 L 9.953125 -21.390625 C 9.953125 -22.515625 9.71875 -23.304688 9.25 -23.765625 C 8.789062 -24.234375 8.09375 -24.46875 7.15625 -24.46875 L 2.546875 -24.46875 L 2.546875 -28.46875 L 8.40625 -28.46875 C 10.113281 -28.46875 11.507812 -27.96875 12.59375 -26.96875 C 13.6875 -25.976562 14.234375 -24.296875 14.234375 -21.921875 L 14.234375 -8.609375 L 15.234375 0 L 11.6875 0 L 10.34375 -7.890625 L 10.140625 -7.890625 C 9.273438 -6.316406 8.28125 -4.976562 7.15625 -3.875 C 6.039062 -2.769531 4.921875 -1.863281 3.796875 -1.15625 C 2.671875 -0.445312 1.644531 0.0976562 0.71875 0.484375 Z M 0.71875 0.484375 "/></g></g></g><g fill="#4b240e" fill-opacity="1"><g transform="translate(727.933153, 498.429642)"><g><path d="M 1.4375 0 L 1.4375 -3.984375 L 10.90625 -3.984375 L 10.90625 -21.390625 C 10.90625 -22.515625 10.671875 -23.304688 10.203125 -23.765625 C 9.742188 -24.234375 9.050781 -24.46875 8.125 -24.46875 L 3.03125 -24.46875 L 3.03125 -28.46875 L 9.375 -28.46875 C 11.070312 -28.46875 12.472656 -27.96875 13.578125 -26.96875 C 14.679688 -25.976562 15.234375 -24.296875 15.234375 -21.921875 L 15.234375 0 Z M 1.4375 0 "/></g></g></g><g fill="#4b240e" fill-opacity="1"><g transform="translate(785.474939, 498.429642)"><g><path d="M 3.609375 -10.234375 L 3.609375 -28.46875 L 7.9375 -28.46875 L 7.9375 -14.5625 L 5.765625 -10.234375 Z M 3.609375 -10.234375 "/></g></g></g><g fill="#4b240e" fill-opacity="1"><g transform="translate(835.22992, 498.429642)"><g><path d="M 17.890625 0 L 17.890625 -18.515625 C 17.890625 -20.753906 17.390625 -22.304688 16.390625 -23.171875 C 15.398438 -24.035156 14.023438 -24.46875 12.265625 -24.46875 L 0.71875 -24.46875 L 0.71875 -28.46875 L 12.546875 -28.46875 C 15.816406 -28.46875 18.242188 -27.742188 19.828125 -26.296875 C 21.421875 -24.859375 22.21875 -22.550781 22.21875 -19.375 L 22.21875 0 Z M 17.890625 0 "/></g></g></g><g fill="#4b240e" fill-opacity="1"><g transform="translate(899.741318, 498.429642)"><g><path d="M 16.59375 0.625 C 13.925781 0.625 11.625 0.132812 9.6875 -0.84375 C 7.75 -1.820312 6.25 -3.398438 5.1875 -5.578125 C 4.132812 -7.753906 3.609375 -10.640625 3.609375 -14.234375 L 3.609375 -28.46875 L 7.9375 -28.46875 L 7.9375 -14.234375 C 7.9375 -10.804688 8.628906 -8.097656 10.015625 -6.109375 C 11.410156 -4.117188 13.632812 -3.125 16.6875 -3.125 C 19.695312 -3.125 21.90625 -4.117188 23.3125 -6.109375 C 24.726562 -8.097656 25.4375 -10.804688 25.4375 -14.234375 C 25.4375 -15.484375 25.410156 -16.734375 25.359375 -17.984375 C 25.304688 -19.234375 25.144531 -20.378906 24.875 -21.421875 C 24.601562 -22.460938 24.15625 -23.300781 23.53125 -23.9375 C 22.90625 -24.582031 22.015625 -24.90625 20.859375 -24.90625 C 20.023438 -24.90625 19.09375 -24.757812 18.0625 -24.46875 C 17.039062 -24.175781 16.132812 -23.804688 15.34375 -23.359375 L 15.34375 -27.5 C 15.945312 -27.789062 16.769531 -28.101562 17.8125 -28.4375 C 18.851562 -28.769531 20.03125 -28.9375 21.34375 -28.9375 C 23.332031 -28.9375 24.90625 -28.5625 26.0625 -27.8125 C 27.21875 -27.0625 28.070312 -26.007812 28.625 -24.65625 C 29.1875 -23.3125 29.554688 -21.75 29.734375 -19.96875 C 29.910156 -18.195312 30 -16.285156 30 -14.234375 C 30 -9.484375 28.785156 -5.816406 26.359375 -3.234375 C 23.941406 -0.660156 20.6875 0.625 16.59375 0.625 Z M 16.59375 0.625 "/></g></g></g><g fill="#4b240e" fill-opacity="1"><g transform="translate(970.597514, 498.429642)"><g><path d="M 3.609375 -10.234375 L 3.609375 -28.46875 L 7.9375 -28.46875 L 7.9375 -14.5625 L 5.765625 -10.234375 Z M 3.609375 -10.234375 "/></g></g></g><g fill="#4b240e" fill-opacity="1"><g transform="translate(1020.352495, 498.429642)"><g><path d="M 3.609375 -10.234375 L 3.609375 -28.46875 L 7.9375 -28.46875 L 7.9375 -14.5625 L 5.765625 -10.234375 Z M 3.609375 -10.234375 "/></g></g></g><g fill="#4b240e" fill-opacity="1"><g transform="translate(1070.107476, 498.429642)"><g><path d="M 15.046875 0 L 24.09375 -24.46875 L 3.84375 -24.46875 L 3.84375 -28.46875 L 28.609375 -28.46875 L 28.609375 -25.1875 L 19.609375 0 Z M 3.84375 11.59375 L 3.84375 -17.40625 L 8.171875 -17.40625 L 8.171875 11.59375 Z M 3.84375 11.59375 "/></g></g></g></svg>